<svg xmlns="http://www.w3.org/2000/svg" aria-hidden="true" style="position:absolute;width:0;height:0;overflow:hidden">
  <defs>
    <symbol id="icon-minus-circle" viewBox="0 0 32 32">
      <path stroke-width="1.116" d="M16 .558C24.528.558 31.442 7.472 31.442 16S24.528 31.442 16 31.442.558 24.528.558 16 7.472.558 16 .558z"/>
      <path stroke-linecap="round" stroke-linejoin="round" stroke-width="1.339" d="M10.286 16h11.429"/>
    </symbol>
    <symbol id="icon-plus" viewBox="0 0 32 32">
      <path stroke-linecap="round" stroke-linejoin="round" stroke-width="2.667" d="M16 6.667v18.667M6.667 16h18.667"/>
    </symbol>
    <symbol id="icon-plus-circle" viewBox="0 0 32 32">
      <path stroke-width="1.116" d="M16 .558C24.528.558 31.442 7.472 31.442 16S24.528 31.442 16 31.442.558 24.528.558 16 7.472.558 16 .558z"/>
      <path stroke-linecap="round" stroke-linejoin="round" stroke-width="1.339" d="M16 10.286v11.429M10.286 16h11.429"/>
    </symbol>
    <symbol id="icon-left" viewBox="0 0 32 32">
      <path stroke-linecap="round" stroke-linejoin="round" stroke-width="2.667" d="m20 24-8-8 8-8"/>
    </symbol>
    <symbol id="icon-right" viewBox="0 0 32 32">
      <path stroke-linecap="round" stroke-linejoin="round" stroke-width="2.667" d="m12 24 8-8-8-8"/>
    </symbol>
    <symbol id="icon-chart" viewBox="0 0 32 32">
      <path stroke-linecap="round" stroke-linejoin="round" stroke-width="2.667" d="M22.933 18.667c.369 0 .554 0 .704.082a.713.713 0 0 1 .293.324c.067.157.05.324.016.659a10.665 10.665 0 0 1-12.694 9.397c-2.069-.412-3.97-1.428-5.462-2.919s-2.508-3.392-2.919-5.461a10.666 10.666 0 0 1 9.397-12.694c.334-.034.502-.05.659.016.13.055.257.17.324.293.082.15.082.334.082.704v8.533c0 .373 0 .56.073.703a.67.67 0 0 0 .291.291c.143.073.329.073.703.073h8.533zM18.667 3.733c0-.369 0-.554.082-.704a.713.713 0 0 1 .324-.293c.157-.067.324-.05.659-.016a10.67 10.67 0 0 1 9.549 9.549c.033.334.05.502-.016.659a.704.704 0 0 1-.293.324c-.15.082-.334.082-.704.082h-8.533c-.373 0-.56 0-.703-.073a.67.67 0 0 1-.291-.291c-.073-.143-.073-.329-.073-.703V3.734z"/>
    </symbol>
    <symbol id="icon-edit-2" viewBox="0 0 32 32">
      <path stroke-linecap="round" stroke-linejoin="round" stroke-width="3.6" d="M22.666 4a3.766 3.766 0 0 1 4.109-.817 3.781 3.781 0 0 1 2.041 2.04 3.764 3.764 0 0 1 0 2.886 3.756 3.756 0 0 1-.817 1.223l-18 18-7.333 2 2-7.333 18-18z"/>
    </symbol>
    <symbol id="icon-eye" viewBox="0 0 32 32">
      <path stroke-linecap="round" stroke-linejoin="round" stroke-width="2.667" d="M1.333 16S6.666 5.333 16 5.333 30.667 16 30.667 16 25.334 26.667 16 26.667 1.333 16 1.333 16z"/>
      <path stroke-linecap="round" stroke-linejoin="round" stroke-width="2.667" d="M20 16a4 4 0 1 1-8 0 4 4 0 0 1 8 0z"/>
    </symbol>
    <symbol id="icon-eye-off" viewBox="0 0 32 32">
      <path stroke-linecap="round" stroke-linejoin="round" stroke-width="2.667" d="M23.92 23.92a13.338 13.338 0 0 1-7.908 2.747H16C6.667 26.667 1.333 16 1.333 16c1.713-3.152 3.977-5.791 6.689-7.877l.058-.043m5.12-2.427c.833-.203 1.788-.32 2.771-.32h.03-.002C25.332 5.333 30.666 16 30.666 16a24.774 24.774 0 0 1-2.91 4.29l.03-.036m-8.959-1.427a4 4 0 1 1-5.655-5.651l.002-.002M1.333 1.333l29.333 29.333"/>
    </symbol>
    <symbol id="icon-log-out" viewBox="0 0 32 32">
      <path stroke-linecap="round" stroke-linejoin="round" stroke-width="2.667" d="M12 28H6.667A2.667 2.667 0 0 1 4 25.333V6.666a2.667 2.667 0 0 1 2.667-2.667H12M21.333 22.667 28 16l-6.667-6.667M28 16H12"/>
    </symbol>
    <symbol id="icon-settings" viewBox="0 0 32 32">
      <path stroke-linecap="round" stroke-linejoin="round" stroke-width="2.667" d="M20 16a4 4 0 1 1-8 0 4 4 0 0 1 8 0z"/>
      <path stroke-linecap="round" stroke-linejoin="round" stroke-width="2.667" d="M25.867 20a2.17 2.17 0 0 0-.187.888c0 .599.239 1.142.628 1.539l.08.08c.483.483.782 1.15.782 1.887s-.299 1.404-.782 1.887c-.483.483-1.15.782-1.887.782s-1.404-.299-1.887-.782l-.08-.08a2.19 2.19 0 0 0-1.538-.627c-.322 0-.627.069-.902.193l.014-.006a2.203 2.203 0 0 0-1.333 2.013v.227a2.667 2.667 0 1 1-5.334 0v-.12a2.2 2.2 0 0 0-1.425-2.008l-.015-.005a2.17 2.17 0 0 0-.888-.187c-.599 0-1.142.239-1.539.628l-.08.08c-.483.483-1.15.782-1.887.782s-1.404-.299-1.887-.782c-.483-.483-.782-1.15-.782-1.887s.299-1.404.782-1.887l.08-.08a2.19 2.19 0 0 0 .627-1.538c0-.322-.069-.627-.193-.902l.006.014a2.203 2.203 0 0 0-2.013-1.333H4a2.667 2.667 0 1 1 0-5.334h.12a2.2 2.2 0 0 0 2.008-1.425l.005-.015a2.17 2.17 0 0 0 .187-.888c0-.599-.239-1.142-.628-1.539l-.08-.08c-.483-.483-.782-1.15-.782-1.887s.299-1.404.782-1.887c.483-.483 1.15-.782 1.887-.782s1.404.299 1.887.782l.08.08a2.19 2.19 0 0 0 1.538.627c.322 0 .627-.069.902-.193l-.014.006h.107a2.203 2.203 0 0 0 1.333-2.013v-.227a2.667 2.667 0 1 1 5.334 0v.12a2.202 2.202 0 0 0 1.319 2.008l.014.006c.261.118.567.187.888.187.599 0 1.142-.239 1.539-.628l.08-.08c.483-.483 1.15-.782 1.887-.782s1.404.299 1.887.782c.483.483.782 1.15.782 1.887s-.299 1.404-.782 1.887l-.08.08a2.19 2.19 0 0 0-.627 1.538c0 .322.069.627.193.902l-.006-.014v.107a2.203 2.203 0 0 0 2.013 1.333H28a2.667 2.667 0 1 1 0 5.334h-.12a2.202 2.202 0 0 0-2.008 1.319l-.006.014z"/>
    </symbol>
    <symbol id="icon-trash" viewBox="0 0 32 32">
      <path stroke-linecap="round" stroke-linejoin="round" stroke-width="3" d="M12 4h8"/>
      <path stroke-linecap="round" stroke-linejoin="round" stroke-width="3.6" d="M4 8h24m-2.667 0-.935 14.026c-.14 2.104-.21 3.156-.665 3.954a4.007 4.007 0 0 1-1.731 1.62c-.826.4-1.881.4-3.99.4h-4.025c-2.109 0-3.163 0-3.99-.4a4.001 4.001 0 0 1-1.731-1.62c-.455-.798-.525-1.85-.665-3.954L6.666 8"/>
    </symbol>
    <symbol id="icon-upload" viewBox="0 0 32 32">
      <path stroke-linecap="round" stroke-linejoin="round" stroke-width="2.667" d="M28 20v5.333A2.667 2.667 0 0 1 25.333 28H6.666a2.667 2.667 0 0 1-2.667-2.667V20M22.667 10.667 16 4l-6.667 6.667M16 4v16"/>
    </symbol>
    <symbol id="icon-x" viewBox="0 0 32 32">
      <path stroke-linecap="round" stroke-linejoin="round" stroke-width="2.667" d="M24 8 8 24M8 8l16 16"/>
    </symbol>
  </defs>
</svg>
